<svg width="512" height="512" viewBox="0 0 512 512" fill="none" xmlns="http://www.w3.org/2000/svg">
<g clip-path="url(#clip0)">
<path d="M1821.59 1876.58C1748.38 1835.48 1674.54 1794.39 1600.71 1753.91C1584.44 1745.2 1566.92 1733.37 1550.02 1732.74C1513.73 1731.5 1477.44 1736.48 1441.77 1740.22C1366.68 1747.69 1290.97 1755.16 1216.51 1762.63C1170.83 1788.78 1125.78 1814.93 1080.1 1841.71C1071.34 1841.71 1062.58 1841.71 1053.82 1841.71C1010.02 1841.09 966.844 1842.33 924.294 1857.27C888.628 1869.73 851.084 1874.71 814.792 1883.43C769.114 1842.95 757.225 1841.09 657.735 1864.75C663.992 1852.29 668.998 1842.33 674.629 1831.12C660.863 1822.41 648.974 1814.31 636.46 1807.46C609.554 1793.76 588.905 1775.08 585.776 1742.71C585.15 1733.99 581.396 1725.9 579.519 1717.8C567.004 1725.9 555.115 1732.74 543.852 1740.22C543.227 1738.97 541.975 1738.35 541.349 1737.1C554.49 1717.18 567.004 1697.88 578.267 1679.82C575.764 1653.05 572.636 1628.76 571.384 1605.1C568.881 1548.44 565.753 1491.78 572.01 1434.5C577.016 1392.16 575.139 1348.57 574.513 1305.61C573.887 1283.82 566.379 1263.27 547.607 1249.57C531.964 1237.12 516.32 1224.66 499.426 1213.46C411.824 1154.31 317.339 1106.98 223.48 1057.8C218.474 1055.3 209.714 1055.3 204.082 1057.17C187.814 1062.15 172.17 1069.63 156.527 1075.23C144.638 1079.59 131.498 1081.46 118.984 1084.57C118.358 1082.08 117.732 1080.21 116.481 1077.72C148.393 1062.15 179.679 1046.59 212.217 1030.4C230.363 979.965 245.38 928.285 252.263 874.115C256.644 838.624 269.784 804.378 279.17 768.265C249.135 778.227 218.474 788.189 185.311 798.774C173.422 756.434 161.533 715.962 149.644 673.622C132.124 674.245 112.101 678.604 93.3288 675.49C64.5454 671.132 42.0192 679.226 19.493 695.415C-3.03319 712.227 -28.0623 725.925 -52.4656 741.491C-53.7171 740.246 -54.3428 739 -55.5943 738.378C-38.6996 717.83 -21.1793 697.283 -3.03322 675.49C-66.8574 668.019 -125.676 668.019 -180.114 704.132C-162.594 686.075 -145.073 669.887 -125.05 657.434C-104.401 644.981 -81.2491 641.245 -55.5943 643.735C-27.4365 646.226 1.34685 646.226 29.5046 641.867C48.2764 638.754 65.7968 626.924 81.4399 620.075C84.5686 578.98 55.1594 568.395 28.2531 552.829C60.1652 550.961 84.5686 571.508 97.7089 607.622C119.609 618.83 146.516 610.735 181.556 579.603C176.55 564.659 171.545 547.225 164.662 530.414C157.779 514.225 148.393 498.659 140.258 482.47C142.136 481.225 144.013 480.602 145.89 479.357C160.282 504.885 176.55 529.168 189.065 555.942C194.697 567.773 199.077 572.131 211.591 566.527C220.351 532.282 222.854 498.036 217.223 463.168C209.714 415.224 187.814 382.224 136.504 374.129C120.235 371.639 103.966 371.016 87.0715 369.771C79.5628 369.148 71.4283 369.771 61.4167 369.771C65.7968 360.431 68.9254 353.582 71.4284 347.978C100.212 333.035 142.761 326.808 169.042 336.771C256.644 369.148 284.801 441.998 261.649 524.187C254.766 549.093 241 572.131 246.632 597.037C230.989 611.98 217.223 623.811 204.708 636.886C193.445 649.339 182.182 662.415 184.059 681.717C186.562 706.623 187.188 732.151 189.065 757.68C189.691 763.284 190.942 768.887 192.194 775.114C212.843 759.548 229.112 741.491 249.135 734.019C269.784 726.547 294.187 729.661 317.965 728.415C327.351 711.604 329.228 695.415 317.339 675.49C304.199 653.075 298.567 626.301 306.076 598.905C316.713 562.169 326.725 524.81 337.988 488.074C345.497 463.168 356.76 440.753 378.035 423.318C394.929 409.62 406.192 392.186 411.824 370.393C386.795 377.243 365.52 392.186 338.614 384.092C341.117 375.997 342.994 369.771 344.871 362.922C321.719 322.45 299.193 282.6 276.041 240.883C294.187 218.468 309.83 192.939 336.111 173.014C339.239 191.071 341.742 204.147 344.245 218.468C333.608 229.675 323.596 240.883 312.333 253.336C324.222 280.732 336.111 307.506 348 334.28C364.894 338.639 379.912 342.374 394.303 346.733C411.198 351.714 427.467 357.941 443.736 363.544C449.368 366.035 454.373 369.771 460.631 372.884C476.274 379.733 485.66 377.243 493.794 362.299C503.18 344.242 503.18 326.186 495.046 308.129C488.788 294.431 480.654 281.355 473.145 267.657C465.636 273.883 458.128 280.732 451.245 286.959C428.093 283.846 409.321 278.864 400.561 255.204C396.181 244.619 387.421 235.279 379.286 226.562C364.269 210.996 359.889 191.694 363.643 172.392C366.146 160.562 371.777 143.127 381.163 138.769C403.689 128.184 428.719 124.448 456.251 116.976C453.122 132.542 451.245 143.127 449.993 149.354C463.759 175.505 476.274 197.92 487.537 219.713C481.28 227.185 476.899 232.166 472.519 236.524C473.145 237.147 473.771 238.392 474.397 239.015C483.157 234.656 492.543 230.298 501.929 225.939C491.291 202.902 480.654 182.977 473.145 161.807C469.391 151.844 471.268 140.014 470.642 129.429C470.642 121.957 473.145 114.486 471.268 107.014C463.133 74.0136 444.987 48.4851 410.572 30.4284C397.432 36.0322 381.789 42.8813 366.146 50.3531C331.731 14.2395 289.807 1.16396 241 17.3528C219.1 24.8245 207.837 44.1266 200.328 69.0325C225.983 59.6928 248.509 52.221 270.409 44.1266C271.035 45.9945 271.661 47.2398 272.912 49.1078C250.386 64.6739 228.486 80.8627 205.96 96.4289C192.819 105.146 184.685 115.108 184.059 131.92C183.434 141.882 180.931 151.222 178.428 162.429C169.667 158.071 163.41 154.335 154.65 149.354C137.755 163.052 120.861 176.75 103.966 190.449C104.592 192.317 105.218 194.184 105.843 196.052C120.235 197.92 135.253 199.788 149.644 201.656C149.644 202.901 150.27 204.147 150.27 204.769C128.369 209.751 107.095 214.732 83.9429 219.713C82.0657 215.977 78.937 211.619 77.0599 207.26C58.9138 154.958 34.5105 105.146 5.72701 58.4475C-4.91035 41.0134 -16.1734 23.5792 -38.0739 16.1075C-95.6408 -3.81721 -153.833 -0.70398 -213.277 3.0319C-258.955 4.89984 -284.61 30.4284 -304.008 67.1645C-314.645 87.0892 -324.031 107.637 -334.043 128.184C-352.815 166.788 -352.189 207.26 -349.06 247.732C-280.856 231.543 -214.529 229.053 -150.079 256.449C-126.927 266.411 -101.272 280.11 -87.5064 300.034C-58.0972 342.374 -62.4773 392.186 -73.1146 440.753C-73.7404 443.243 -74.3661 445.734 -75.6175 447.602C-88.132 463.79 -100.647 479.979 -113.161 495.546C-115.664 496.168 -117.541 496.791 -119.418 496.791C-179.488 489.319 -238.932 493.678 -297.125 507.998C-345.306 519.829 -390.358 539.753 -432.908 564.659C-464.82 583.339 -492.352 605.131 -489.849 646.849C-417.264 720.321 -344.054 793.793 -270.844 867.888C-267.716 855.435 -265.213 842.982 -261.458 828.662C-253.95 831.775 -249.57 833.643 -247.067 834.888C-238.307 890.926 -229.546 944.474 -220.16 998.644C-186.997 1024.8 -153.208 1050.95 -120.044 1077.1C-120.67 1078.34 -121.921 1079.59 -122.547 1080.83C-156.962 1067.14 -191.377 1053.44 -228.295 1038.49C-237.055 1016.08 -247.692 991.172 -256.453 966.266C-265.213 940.115 -276.476 916.455 -299.002 899.021C-305.259 894.039 -310.891 887.813 -317.148 882.209C-372.838 834.888 -422.896 783.208 -466.071 724.057C-476.709 709.736 -487.972 696.038 -501.738 678.604C-504.866 699.774 -507.995 715.962 -509.872 732.151C-518.007 796.907 -526.141 861.662 -533.65 925.794C-534.275 930.776 -533.024 937.625 -529.895 941.983C-501.738 987.436 -471.703 1031.02 -435.411 1070.87C-404.75 1103.87 -362.201 1109.48 -322.78 1121.31C-262.71 1139.98 -201.389 1155.55 -140.067 1171.74C-111.91 1179.21 -83.752 1185.44 -57.4715 1191.66C-48.0856 1184.82 -41.2025 1179.83 -33.6938 1173.61C-29.3137 1178.59 -24.9336 1183.57 -18.0506 1191.66C-83.1262 1206.61 -141.945 1178.59 -203.266 1177.34C-202.64 1181.7 -202.014 1184.82 -200.763 1188.55C-194.506 1212.83 -188.248 1237.12 -191.377 1263.27C-199.511 1324.29 -206.394 1385.31 -213.277 1445.7C-215.78 1465.63 -212.652 1483.69 -195.757 1501.12C-182.617 1489.29 -170.102 1479.33 -158.214 1468.12C-133.184 1443.84 -102.524 1442.59 -70.6118 1443.21C-73.7404 1447.57 -77.4947 1450.69 -81.2491 1453.18C-105.027 1469.99 -130.682 1484.31 -151.956 1503.61C-198.26 1544.71 -235.804 1593.89 -265.213 1648.06C-272.722 1661.76 -276.476 1677.95 -262.084 1692.9C-231.424 1689.16 -200.763 1684.8 -170.102 1681.07C-169.477 1682.93 -168.851 1685.42 -168.225 1687.29C-187.623 1699.12 -207.02 1712.2 -227.043 1722.16C-247.692 1732.12 -269.593 1739.59 -292.745 1748.93C-303.382 1765.75 -309.014 1785.05 -310.891 1806.84C-314.645 1852.92 -303.382 1900.86 -324.031 1945.07C-324.657 1945.69 -323.405 1947.56 -322.78 1949.43C-300.879 1961.26 -278.979 1973.09 -257.078 1985.54C-257.704 1987.41 -258.33 1989.28 -258.956 1990.52C-270.844 1990.52 -282.733 1991.14 -294.622 1990.52C-335.92 1989.28 -358.446 2004.84 -357.195 2056.52C-354.066 2057.77 -350.312 2059.63 -344.68 2062.12C-355.318 2098.24 -335.92 2128.75 -322.154 2164.86C-334.669 2158.64 -342.803 2154.9 -349.06 2151.79C-394.113 2170.47 -400.37 2210.94 -409.756 2250.79C-365.329 2265.73 -324.657 2284.41 -280.23 2287.52C-252.073 2265.11 -223.289 2275.07 -195.757 2299.98C-207.02 2301.22 -215.78 2302.47 -225.166 2303.09C-288.365 2307.45 -352.189 2311.81 -415.387 2316.79C-439.791 2318.66 -464.194 2318.03 -487.346 2323.64C-524.89 2332.35 -561.182 2345.43 -598.1 2356.64C-685.076 2383.41 -771.426 2410.81 -858.402 2438.2C-876.548 2467.47 -894.694 2496.11 -914.092 2527.24C-883.431 2531.6 -855.899 2534.71 -825.239 2539.07C-854.648 2562.11 -880.303 2583.28 -906.583 2604.45C-905.957 2606.32 -905.957 2607.56 -905.332 2609.43C-869.039 2606.94 -832.122 2606.32 -795.829 2601.96C-710.73 2591.37 -625.632 2581.41 -541.158 2566.47C-471.703 2554.64 -402.247 2537.2 -333.417 2521.02C-284.61 2509.19 -235.804 2495.49 -186.997 2481.17C-143.196 2468.09 -100.647 2452.52 -58.0972 2436.96C6.97839 2413.3 72.054 2389.01 136.504 2364.73C191.568 2343.56 246.632 2321.15 302.322 2300.6C360.514 2279.43 418.707 2260.13 477.525 2240.2C530.712 2222.15 583.899 2203.47 637.086 2187.28C698.407 2168.6 760.354 2150.54 822.927 2133.73C882.996 2117.54 943.066 2103.22 1003.14 2088.28C1026.91 2082.05 1051.32 2076.45 1075.72 2072.09C1122.65 2062.75 1168.95 2054.03 1215.88 2045.94C1256.56 2039.09 1297.23 2031.62 1338.53 2026.63C1387.96 2021.03 1437.39 2018.54 1486.82 2012.94C1568.79 2004.22 1650.76 2006.09 1733.36 2009.82C1748.38 2010.45 1763.39 2012.94 1778.41 2014.8C1804.69 1974.95 1830.35 1936.35 1856 1897.12C1840.36 1889.03 1830.97 1882.18 1821.59 1876.58ZM-118.793 879.719C-148.202 870.379 -176.36 858.549 -205.143 847.964C-209.523 846.096 -213.277 842.982 -217.658 839.869C-217.032 838.624 -217.032 837.379 -216.406 835.511C-166.348 848.586 -116.29 861.662 -66.2316 874.737C-53.0913 842.36 -41.8283 814.963 -30.5652 788.189C-28.688 788.189 -26.8108 788.812 -25.5593 788.812C-29.9394 821.19 -19.9279 854.19 -37.4482 888.436C10.107 892.794 45.7735 865.398 85.1943 852.322C66.4225 887.19 23.873 915.209 -14.2963 907.115C-49.9628 900.266 -84.3777 890.304 -118.793 879.719ZM506.934 2145.56C469.391 2162.99 432.473 2181.67 393.678 2196.62C376.783 2203.47 356.76 2204.71 337.988 2205.96C242.252 2210.94 145.89 2214.67 49.5279 2219.03C47.025 2219.03 44.522 2219.03 42.0191 2219.03C17.6158 2220.9 -9.91618 2218.41 -11.7934 2258.26C-19.3021 2252.03 -23.0565 2248.92 -26.8109 2245.18C-41.2026 2232.11 -54.9686 2218.41 -69.986 2206.58C-83.1263 2195.99 -99.3952 2197.24 -110.658 2207.2C-137.565 2230.86 -166.348 2224.01 -195.131 2215.3C-208.897 2210.94 -222.038 2204.71 -235.178 2199.11C-234.552 2197.24 -234.552 2195.99 -233.926 2194.13C-219.535 2197.24 -204.517 2199.73 -190.126 2203.47C-162.594 2210.31 -138.816 2205.96 -118.167 2182.92C-131.933 2166.73 -144.447 2150.54 -158.839 2135.6C-171.979 2121.28 -180.74 2106.96 -177.611 2086.41C-175.734 2073.33 -176.36 2060.26 -175.108 2045.94C-178.862 2045.94 -183.243 2045.94 -189.5 2045.94C-187.623 2034.73 -185.746 2024.14 -183.243 2013.56C-175.108 1978.07 -165.722 1942.58 -157.588 1907.09C-153.833 1890.27 -150.079 1873.46 -150.079 1856.65C-150.705 1832.99 -140.693 1814.31 -128.804 1795.63C-77.4946 1717.8 -38.6996 1633.12 -6.78753 1546.57C6.97847 1508.59 17.6158 1469.99 27.6275 1430.76C33.8847 1405.23 38.8905 1378.46 40.142 1352.31C42.0192 1301.87 69.5511 1267.63 105.218 1236.5C118.984 1224.66 133.375 1212.83 147.767 1200.38C149.018 1201.63 150.27 1202.25 151.521 1203.49C139.007 1228.4 126.492 1252.68 113.978 1278.84C137.13 1293.16 159.656 1298.14 185.936 1294.4C235.369 1287.55 285.427 1283.82 335.485 1279.46C336.111 1281.33 336.111 1283.19 336.737 1285.06C297.316 1295.65 257.895 1306.23 214.72 1317.44C225.357 1323.04 233.492 1328.02 242.252 1331.14C270.409 1341.1 297.941 1352.93 326.725 1359.78C345.497 1364.14 356.134 1375.35 361.766 1390.91C374.906 1429.52 386.795 1468.74 396.181 1508.59C402.438 1536.61 413.075 1560.89 432.473 1581.44C441.233 1590.78 449.993 1601.37 459.379 1611.33C441.859 1610.08 425.59 1591.4 401.812 1601.37C412.45 1691.03 411.198 1781.93 443.11 1870.97C406.192 1900.86 415.578 1941.95 415.578 1983.05C457.502 1983.05 496.923 1983.05 536.969 1983.05C537.595 1984.29 538.221 1985.54 538.221 1986.16C480.654 2027.26 423.087 2068.97 362.391 2112.56C426.216 2115.67 486.285 2118.16 546.355 2120.65C546.981 2121.9 546.981 2123.14 547.607 2124.39C533.841 2132.48 520.7 2139.33 506.934 2145.56Z" fill="#2D3748"/>
</g>
<defs>
<clipPath id="clip0">
<rect width="512" height="512" fill="white"/>
</clipPath>
</defs>
</svg>
